<?xml version="1.0" standalone="no"?>
<!DOCTYPE svg PUBLIC "-//W3C//DTD SVG 20010904//EN"
 "http://www.w3.org/TR/2001/REC-SVG-20010904/DTD/svg10.dtd">
<svg version="1.0" xmlns="http://www.w3.org/2000/svg"
 width="512.000000pt" height="512.000000pt" viewBox="0 0 512.000000 512.000000"
 preserveAspectRatio="xMidYMid meet">

<g transform="translate(0.000000,512.000000) scale(0.100000,-0.100000)"
fill="#000000" stroke="none">
<path d="M1780 4899 c-14 -5 -130 -114 -258 -242 -253 -253 -263 -267 -227
-332 20 -38 52 -55 102 -55 33 0 48 12 175 137 l138 137 -2 -248 -3 -248 -67
-23 c-85 -29 -129 -56 -202 -125 -214 -202 -337 -606 -363 -1187 l-6 -153
-280 0 c-242 0 -283 -2 -307 -17 -58 -34 -68 -116 -21 -164 l29 -29 285 0
c156 0 286 -2 288 -4 7 -8 -10 -304 -26 -429 -58 -478 -193 -761 -396 -832
-23 -8 -57 -15 -76 -15 -78 0 -133 -46 -133 -111 0 -81 66 -117 180 -100 134
21 229 71 323 169 204 215 311 588 342 1195 l7 127 212 -2 211 -3 5 -820 c3
-451 9 -827 13 -836 5 -9 23 -24 41 -34 42 -23 94 -14 127 21 l24 26 3 824 2
824 214 0 213 0 6 -160 c19 -459 108 -828 253 -1053 215 -332 631 -382 891
-105 201 214 307 589 338 1191 l7 127 239 0 c131 0 239 -3 239 -8 0 -4 -56
-63 -125 -132 -75 -75 -129 -137 -135 -156 -21 -61 34 -134 100 -134 41 0 78
31 303 257 215 217 227 231 227 266 0 21 -6 50 -14 65 -8 15 -115 127 -238
248 -168 167 -231 223 -255 228 -71 16 -143 -56 -127 -127 5 -22 44 -70 137
-164 l130 -133 -241 0 -242 0 0 33 c0 79 22 334 40 459 46 326 130 555 250
678 59 61 131 96 225 109 83 12 114 37 122 99 5 37 2 45 -30 77 -32 32 -40 35
-91 35 -219 0 -402 -133 -529 -386 -107 -212 -176 -554 -194 -951 l-6 -153
-533 0 -532 0 -7 128 c-26 512 -109 861 -260 1087 -30 46 -80 106 -110 133
-58 54 -173 117 -231 128 l-34 6 0 251 0 251 138 -137 c132 -131 141 -137 179
-137 77 0 129 74 100 142 -19 42 -452 473 -490 488 -33 12 -34 12 -67 -1z
m-70 -1709 l0 -630 -216 0 -216 0 6 118 c31 537 125 887 285 1050 41 43 110
90 134 92 4 0 7 -283 7 -630z m271 602 c213 -135 337 -532 362 -1159 l3 -73
-213 0 -213 0 0 630 c0 347 4 630 8 630 4 0 28 -13 53 -28z m1640 -1446 c7 -8
-10 -304 -26 -429 -58 -478 -193 -761 -396 -832 -23 -8 -70 -15 -105 -15 -256
0 -427 279 -498 810 -15 108 -36 365 -36 438 l0 32 528 0 c291 0 531 -2 533
-4z"/>
</g>
</svg>
