<?xml version="1.0" standalone="no"?>
<!DOCTYPE svg PUBLIC "-//W3C//DTD SVG 20010904//EN"
 "http://www.w3.org/TR/2001/REC-SVG-20010904/DTD/svg10.dtd">
<svg version="1.0" xmlns="http://www.w3.org/2000/svg"
 width="512.000000pt" height="512.000000pt" viewBox="0 0 512.000000 512.000000"
 preserveAspectRatio="xMidYMid meet">

<g transform="translate(0.000000,512.000000) scale(0.100000,-0.100000)"
fill="#000000" stroke="none">
<path d="M2415 4896 c-17 -7 -35 -19 -41 -27 -7 -8 -495 -882 -1085 -1944
-877 -1578 -1073 -1937 -1073 -1968 0 -29 7 -44 32 -70 l32 -32 1533 0 1532 0
662 442 c364 243 667 451 672 462 19 34 12 86 -15 127 -15 21 -503 705 -1085
1520 -1161 1626 -1083 1526 -1164 1490z m299 -1757 c147 -665 266 -1212 264
-1215 -3 -2 -282 -3 -620 -2 l-615 3 346 1212 c190 667 348 1213 351 1213 3 0
126 -545 274 -1211z m825 -41 l840 -1178 -588 0 -589 0 -16 72 c-9 40 -128
576 -265 1191 -136 615 -242 1112 -235 1105 6 -7 390 -543 853 -1190z m-1739
-199 c-160 -558 -290 -1015 -290 -1016 0 -5 -872 -584 -875 -581 -3 4 1449
2617 1452 2614 2 -1 -128 -459 -287 -1017z m1239 -1226 c27 -106 132 -595 128
-599 -2 -2 -561 -3 -1242 -2 l-1238 3 474 317 474 317 697 0 697 1 10 -37z
m1191 34 c0 -7 -850 -570 -853 -566 -2 2 -30 123 -62 269 -32 146 -60 273 -63
282 -4 17 23 18 487 18 270 0 491 -2 491 -3z"/>
</g>
</svg>
